# Blender v3.0.0 OBJ File: ''
# www.blender.org
mtllib barrik.mtl
o dec
v 0.691595 1.513842 0.412356
v 0.795610 -0.009919 -0.052913
v 0.707790 1.513826 0.411620
v 0.813079 -0.009964 -0.053557
v 0.716770 -0.007273 -0.148305
v 0.717054 -0.010083 -0.128130
v 0.610177 1.530069 0.329896
v 0.611082 1.527264 0.350051
v 0.689776 1.530030 0.347710
v 0.795747 -0.007321 -0.128074
v 0.705045 1.532819 0.326846
v 0.811671 -0.004524 -0.148465
v -0.760273 1.519706 0.405465
v -0.780019 1.521468 0.405420
v -0.855188 -0.017560 -0.062499
v -0.875013 -0.017615 -0.063302
v -0.696820 1.526351 0.342622
v -0.790405 -0.006558 -0.123521
v -0.697462 1.532277 0.319047
v -0.790707 -0.000848 -0.147127
v -0.854649 -0.005764 -0.123347
v -0.874301 -0.000039 -0.146738
v -0.760844 1.531978 0.344711
v -0.781963 1.539824 0.322548
v 0.726048 0.853954 0.584484
v -0.785389 0.853706 0.586804
v 0.725311 0.845404 0.549769
v -0.786191 0.844687 0.550153
v 0.722615 0.879702 0.541242
v -0.785343 0.880776 0.540124
v 0.723393 0.888258 0.576044
v -0.784530 0.889791 0.576668
v -0.837521 0.198729 -0.071079
v -0.819482 0.246542 0.735357
v -0.814330 0.198333 -0.071946
v -0.797283 0.246695 0.735741
v -0.819640 0.177706 0.747589
v -0.797440 0.177859 0.747975
v -0.838290 0.130842 -0.081475
v -0.815100 0.130445 -0.082343
v 0.623132 1.831611 0.375590
v -0.676653 1.831949 0.380467
v 0.622324 1.826313 0.354568
v -0.677470 1.826657 0.359447
v 0.622729 1.862551 0.285252
v -0.677060 1.862894 0.290163
v 0.623019 1.883744 0.279583
v -0.678061 1.884120 0.284856
v -0.677371 1.877110 0.346134
v -0.677558 1.903634 0.361885
v 0.622406 1.876772 0.341243
v 0.622230 1.903288 0.356973
v 0.894911 -0.004929 0.821070
v 0.895227 0.000536 0.842759
v -0.867244 -0.004514 0.827001
v -0.866919 0.000940 0.848709
v -0.874274 0.895622 0.602714
v -0.873593 0.901075 0.624381
v 0.888643 0.887771 0.585318
v 0.888511 0.893158 0.605980
v -0.772177 -0.004737 0.814946
v -0.658149 2.000068 0.279090
v -0.773180 -0.001552 0.828158
v -0.657866 2.003220 0.291905
v -0.718764 1.986712 0.222770
v -0.832780 -0.018126 0.758489
v -0.735391 1.986655 0.221955
v -0.849406 -0.018182 0.757675
v -0.833496 -0.003845 0.813836
v -0.850647 -0.000643 0.827286
v -0.719487 2.000978 0.278035
v -0.736610 2.004175 0.291494
v 0.737595 0.242144 0.733471
v 0.765284 0.242150 0.733483
v 0.757952 0.227646 -0.060430
v 0.783620 0.228292 -0.061466
v 0.737847 0.175456 0.746866
v 0.765537 0.175461 0.746877
v 0.756877 0.165437 -0.060856
v 0.782547 0.166080 -0.061891
v -0.885240 0.891945 0.588416
v -0.885296 0.898436 0.612190
v -0.874815 1.875825 0.325141
v -0.874505 1.882539 0.349908
v 0.887651 1.881844 0.344067
v 0.877181 0.897996 0.607318
v 0.877089 0.891627 0.582454
v 0.887342 1.875728 0.319109
v 0.598263 2.040781 0.276624
v 0.597964 2.037626 0.263796
v 0.742167 -0.000958 0.822592
v 0.741877 -0.004117 0.809762
v 0.798437 -0.016648 0.759964
v 0.782317 -0.016630 0.760212
v 0.655644 2.025140 0.213892
v 0.639523 2.025156 0.214139
v 0.782960 -0.004207 0.808847
v 0.799878 -0.000992 0.822473
v 0.638962 2.037574 0.263045
v 0.655871 2.040783 0.276656
vt 0.952100 0.975300
vt 0.951100 0.000800
vt 0.964500 0.974600
vt 0.964500 0.000000
vt 0.887900 0.000000
vt 0.903300 0.002000
vt 0.887900 0.997600
vt 0.903300 0.999600
vt 0.338000 0.000000
vt 0.389000 0.002200
vt 0.333400 0.987200
vt 0.389000 0.999400
vt 0.749300 0.567200
vt 0.737100 0.554600
vt 0.749300 0.514300
vt 0.736900 0.514200
vt 0.070700 0.000000
vt 0.070700 0.995400
vt 0.000000 0.014100
vt 0.004300 0.999700
vt 0.143300 0.945600
vt 0.070700 0.943100
vt 0.143300 0.002600
vt 0.749400 0.624600
vt 0.749300 0.576000
vt 0.765000 0.624800
vt 0.765000 0.566100
vt 0.273200 0.985500
vt 0.273200 0.001800
vt 0.333400 0.983900
vt 0.333400 0.000000
vt 0.918400 0.983400
vt 0.903300 0.983800
vt 0.918400 0.000800
vt 0.903300 0.000000
vt 0.869300 0.993500
vt 0.869300 0.000900
vt 0.887900 0.992800
vt 0.887900 0.000000
vt 0.679100 0.614300
vt 0.694200 0.614700
vt 0.679000 0.651400
vt 0.694200 0.665600
vt 0.544000 0.000000
vt 0.544000 0.995600
vt 0.496800 0.003700
vt 0.496800 0.999600
vt 0.767800 0.618900
vt 0.767100 0.581000
vt 0.782900 0.618500
vt 0.782900 0.566700
vt 0.143500 0.000000
vt 0.208200 0.004100
vt 0.143300 0.995300
vt 0.208200 1.000000
vt 0.749300 0.566100
vt 0.749400 0.526400
vt 0.767100 0.566000
vt 0.767100 0.514200
vt 0.273200 0.943900
vt 0.208200 0.942300
vt 0.273200 0.000000
vt 0.209300 0.002500
vt 0.767100 0.514300
vt 0.785300 0.514200
vt 0.767500 0.554100
vt 0.785300 0.566700
vt 0.438200 0.982800
vt 0.389000 0.981000
vt 0.438200 0.000000
vt 0.389000 0.001300
vt 0.813700 0.000000
vt 0.813700 0.935800
vt 0.786800 0.000400
vt 0.785300 0.936200
vt 0.841600 0.000000
vt 0.841600 0.935800
vt 0.815100 0.001600
vt 0.813700 0.935200
vt 0.869300 0.933300
vt 0.842900 0.933100
vt 0.869300 0.000300
vt 0.841600 0.000000
vt 0.982200 0.498400
vt 0.983000 0.000500
vt 1.000000 0.498700
vt 1.000000 0.000000
vt 0.711200 0.655700
vt 0.694200 0.655600
vt 0.711200 0.614400
vt 0.694200 0.614300
vt 0.785300 0.000000
vt 0.785300 0.514200
vt 0.733900 0.008800
vt 0.732200 0.509100
vt 0.679000 0.005100
vt 0.732200 0.000000
vt 0.680800 0.506200
vt 0.732200 0.515000
vt 0.964500 0.000200
vt 0.982200 0.000000
vt 0.965300 0.514500
vt 0.982200 0.515000
vt 0.934800 0.805200
vt 0.934800 0.000400
vt 0.951100 0.804800
vt 0.951100 0.000000
vt 0.918500 0.805400
vt 0.918400 0.000600
vt 0.934800 0.805600
vt 0.934800 0.000000
vt 0.679100 0.578200
vt 0.679000 0.564800
vt 0.719000 0.578500
vt 0.735700 0.565000
vt 0.640100 0.000000
vt 0.679000 0.000100
vt 0.640100 0.804800
vt 0.679000 0.804900
vt 0.679000 0.551300
vt 0.719000 0.551000
vt 0.679000 0.564800
vt 0.735700 0.564400
vt 0.596600 0.805300
vt 0.544000 0.804800
vt 0.596600 0.000500
vt 0.544000 0.000000
vt 0.719000 0.614300
vt 0.735700 0.614200
vt 0.438200 0.805400
vt 0.438400 0.000400
vt 0.496800 0.804300
vt 0.496800 0.000000
vt 0.718900 0.515200
vt 0.735700 0.515000
vt 0.596600 0.000000
vt 0.640100 0.000400
vt 0.596600 0.804800
vt 0.640100 0.805100
vt 0.713700 0.940600
vt 0.703000 0.940700
vt 0.709700 0.098100
vt 0.699000 0.098300
vt 0.250300 0.097300
vt 0.261000 0.097400
vt 0.256800 0.940100
vt 0.267000 0.939900
vt 0.266900 0.950100
vt 0.702800 0.951400
vt 0.699100 0.087600
vt 0.261100 0.086700
vt 0.525500 0.083800
vt 0.518000 0.926200
vt 0.089600 0.082600
vt 0.080000 0.925300
vt 0.980200 0.804100
vt 0.980400 0.000000
vt 0.985400 0.804300
vt 0.985400 0.000100
vt 0.974200 0.000000
vt 0.974200 0.804900
vt 0.967900 0.000300
vt 0.967900 0.805100
vt 0.094500 0.686700
vt 0.099600 0.687100
vt 0.094300 0.710500
vt 0.099600 0.717100
vt 0.847900 0.805700
vt 0.847900 0.000900
vt 0.871000 0.804900
vt 0.871000 0.000000
vt 0.099800 0.717100
vt 0.099600 0.693300
vt 0.104800 0.717200
vt 0.104800 0.686700
vt 0.796500 0.806100
vt 0.766900 0.804800
vt 0.796500 0.001200
vt 0.767400 0.000000
vt 0.081700 0.714300
vt 0.081600 0.692200
vt 0.088000 0.714500
vt 0.088000 0.686700
vt 0.823600 0.000000
vt 0.823600 0.803100
vt 0.796600 0.000400
vt 0.796500 0.803500
vt 0.088100 0.686900
vt 0.094300 0.686700
vt 0.088000 0.709000
vt 0.094300 0.714500
vt 0.914200 0.804300
vt 0.892700 0.804100
vt 0.914200 0.000200
vt 0.892700 0.000000
vt 0.060700 0.686700
vt 0.071200 0.687000
vt 0.061500 0.988900
vt 0.071200 0.989500
vt 0.081600 0.686700
vt 0.081600 0.713000
vt 0.071200 0.686800
vt 0.071200 0.713100
vt 0.050300 0.999500
vt 0.025200 0.994700
vt 0.050300 0.686700
vt 0.026900 0.687200
vt 0.025200 0.686700
vt 0.025200 1.000000
vt 0.000000 0.691600
vt 0.001700 0.999600
vt 0.060700 0.686700
vt 0.060700 0.994200
vt 0.051100 0.687300
vt 0.050300 0.994400
vt 1.000000 0.789000
vt 0.990700 0.789000
vt 1.000000 0.394700
vt 0.990300 0.394600
vt 0.766900 0.000000
vt 0.766900 0.682400
vt 0.383500 0.004200
vt 0.383500 0.686800
vt 1.000000 0.394600
vt 0.990300 0.394500
vt 1.000000 0.000200
vt 0.990300 0.000000
vt 0.958300 0.000100
vt 0.958300 0.682500
vt 0.948600 0.000000
vt 0.948600 0.682400
vt 0.967900 0.000000
vt 0.967900 0.682500
vt 0.958300 0.000000
vt 0.958700 0.682500
vt 0.383500 0.686700
vt 0.000100 0.682400
vt 0.383500 0.004200
vt 0.000000 0.000000
vt 0.985400 0.000100
vt 0.990300 0.000000
vt 0.985400 0.819200
vt 0.990300 0.819100
vt 0.974200 0.000000
vt 0.980200 0.000400
vt 0.974200 0.820400
vt 0.980200 0.820800
vt 0.117700 0.709200
vt 0.117400 0.693300
vt 0.122700 0.709100
vt 0.122700 0.686700
vt 0.948600 0.821400
vt 0.933200 0.820400
vt 0.948600 0.001000
vt 0.933200 0.000000
vt 0.127900 0.709100
vt 0.122700 0.702600
vt 0.127900 0.686800
vt 0.123000 0.686700
vt 0.892700 0.000000
vt 0.892700 0.820300
vt 0.871000 0.001500
vt 0.871000 0.821800
vt 0.117400 0.711700
vt 0.111100 0.706100
vt 0.117400 0.686800
vt 0.111300 0.686700
vt 0.823600 0.000000
vt 0.847900 0.000400
vt 0.823600 0.817700
vt 0.847900 0.818100
vt 0.105100 0.711700
vt 0.104800 0.692200
vt 0.111100 0.711800
vt 0.111100 0.686700
vt 0.933200 0.819100
vt 0.914300 0.000200
vt 0.914200 0.819300
vn 0.0432 -0.2891 0.9563
vn 0.0406 -0.2892 0.9564
vn 0.0370 -0.2895 0.9565
vn 0.0345 -0.2896 0.9565
vn -0.9975 -0.0705 0.0042
vn -0.9963 -0.0792 0.0337
vn -0.9974 -0.0712 0.0102
vn -0.9977 -0.0675 -0.0042
vn 0.1147 0.9702 0.2136
vn 0.0120 0.9701 0.2426
vn 0.9973 0.0725 -0.0106
vn 0.9973 0.0728 -0.0120
vn 0.9972 0.0734 -0.0143
vn 0.9972 0.0737 -0.0158
vn -0.0392 0.2943 -0.9549
vn -0.0101 0.2947 -0.9555
vn -0.0307 0.9898 0.1391
vn -0.0251 0.9931 0.1144
vn 0.0097 -0.2950 0.9554
vn 0.0388 -0.2943 0.9549
vn -0.0280 -0.2895 0.9568
vn -0.0350 -0.2891 0.9567
vn -0.0309 -0.2894 0.9567
vn -0.0379 -0.2890 0.9566
vn 0.9980 -0.0489 -0.0395
vn 0.9983 -0.0529 -0.0256
vn 0.0104 -0.9817 -0.1902
vn -0.0393 -0.9777 -0.2063
vn 0.9983 -0.0554 -0.0206
vn 0.9982 -0.0600 -0.0028
vn 0.0867 0.9767 0.1965
vn 0.1380 0.9677 0.2111
vn -0.9981 0.0510 0.0347
vn -0.9983 0.0587 0.0038
vn -0.0126 -0.9719 -0.2349
vn -0.0121 -0.9723 -0.2336
vn -0.0109 -0.9730 -0.2305
vn -0.0105 -0.9733 -0.2294
vn -0.0135 0.2922 -0.9563
vn -0.0050 0.2913 -0.9566
vn -0.0101 0.2919 -0.9564
vn -0.0016 0.2910 -0.9567
vn 0.0928 0.9662 0.2404
vn 0.0957 0.9642 0.2474
vn 0.0937 0.9656 0.2424
vn 0.0964 0.9636 0.2493
vn -0.0010 -0.2911 0.9567
vn 0.0037 -0.2912 0.9567
vn 0.0009 -0.2911 0.9567
vn 0.0056 -0.2912 0.9566
vn 0.0005 -0.9710 0.2391
vn 0.0005 -0.9710 0.2389
vn -0.0001 -0.2413 -0.9705
vn 0.0005 -0.2678 -0.9635
vn 0.0009 0.9711 -0.2388
vn 0.0009 0.9709 -0.2395
vn 0.0148 0.9981 -0.0595
vn -0.0058 0.9982 -0.0596
vn -0.0183 0.1750 0.9844
vn -0.0182 0.1750 0.9844
vn -0.9997 0.0079 0.0220
vn -0.9997 0.0072 0.0220
vn -0.9997 0.0067 0.0220
vn -0.9997 0.0062 0.0220
vn 0.9998 -0.0060 -0.0207
vn 0.9998 -0.0082 -0.0208
vn -0.0150 -0.9983 0.0568
vn 0.0059 -0.9984 0.0569
vn 0.0007 -0.9697 0.2444
vn 0.0007 -0.9697 0.2441
vn -0.0037 -0.2584 -0.9660
vn -0.0040 -0.2427 -0.9701
vn -0.9993 0.0114 0.0360
vn -0.9999 -0.0119 0.0082
vn -0.9999 -0.0109 0.0065
vn -0.0037 -0.2553 -0.9669
vn -0.0037 -0.2551 -0.9669
vn 0.9993 -0.0110 -0.0356
vn 0.9999 0.0108 -0.0070
vn 0.0037 0.2514 0.9679
vn 0.0037 0.2510 0.9680
vn -0.9989 -0.0456 0.0060
vn -0.9999 -0.0129 0.0098
vn -0.0007 0.9696 -0.2449
vn -0.0007 0.9694 -0.2455
vn -0.0007 0.9694 -0.2456
vn 0.9999 -0.0114 0.0087
vn 1.0000 -0.0017 0.0098
vn 0.9999 -0.0085 0.0090
vn 0.9999 0.0007 0.0100
vn 0.0007 -0.9692 0.2462
vn 0.0006 -0.9697 0.2443
vn 0.0006 -0.9699 0.2437
vn 0.0019 0.9697 -0.2441
vn 0.0018 0.9683 -0.2499
vn 0.0018 0.9691 -0.2465
vn 0.0017 0.9677 -0.2523
vn 1.0000 0.0081 0.0043
vn 0.9999 0.0034 -0.0154
vn -0.9999 -0.0038 0.0159
vn -0.9995 0.0004 0.0313
vn 0.0033 0.2564 0.9666
vn 0.0112 0.2419 0.9702
vn -0.0033 -0.2554 -0.9668
vn -0.0107 -0.2418 -0.9703
vn 0.9959 -0.0342 0.0839
vn 0.9982 -0.0594 -0.0074
vn 0.0482 -0.2604 -0.9643
vn 0.0481 -0.2604 -0.9643
vn -0.0184 -0.9723 0.2330
vn -0.0139 -0.9766 0.2148
vn 0.0128 -0.2589 -0.9658
vn 0.0137 -0.2589 -0.9658
vn 0.0185 0.9708 -0.2392
vn 0.0130 0.9764 -0.2154
vn -0.0019 0.2585 0.9660
vn -0.0062 0.2586 0.9660
vn -0.0036 0.2585 0.9660
vn -0.0078 0.2586 0.9660
vn -0.0090 -0.9683 0.2497
vn 0.0107 -0.9696 0.2445
vn -0.9984 0.0488 -0.0298
vn -0.9984 0.0490 -0.0296
vn -0.9984 0.0487 -0.0301
vn 0.0089 0.9683 -0.2498
vn -0.0111 0.9696 -0.2445
vn 0.9984 -0.0499 0.0259
vn 0.9984 -0.0499 0.0258
vn -0.0002 0.9998 -0.0183
vn -0.0259 0.9995 -0.0180
vn -0.0005 0.1969 0.9804
vn -0.0004 0.1969 0.9804
vn -0.9997 -0.0085 -0.0234
vn -0.9995 0.0175 -0.0259
vn 0.9997 0.0080 0.0209
vn 0.9996 -0.0174 0.0234
vn 0.0255 -0.9996 0.0121
vn 0.0002 -0.9999 0.0124
vn -0.9999 0.0093 -0.0049
vn -0.9999 0.0133 0.0089
vn 0.0033 0.2584 0.9660
vn 0.0033 0.2583 0.9661
vn 0.0030 0.2577 0.9662
vn 0.0027 0.2575 0.9663
vn 0.9999 -0.0109 -0.0009
vn 0.9999 -0.0123 -0.0068
vn 0.9999 -0.0115 -0.0033
vn 0.9999 -0.0129 -0.0092
vn -0.0005 0.9652 -0.2616
vn -0.0008 0.9713 -0.2380
vn 0.0004 -0.9687 0.2481
vn 0.0007 -0.9647 0.2634
vn -0.0033 -0.2585 -0.9660
vn -0.9975 -0.0601 0.0380
vn -0.9975 -0.0602 0.0377
vn -0.9975 -0.0603 0.0374
vn -0.0152 -0.2593 -0.9657
vn -0.0151 -0.2593 -0.9657
vn 0.0032 -0.9710 0.2390
vn 0.0024 -0.9716 0.2367
vn 0.0006 -0.9728 0.2317
vn -0.0001 -0.9732 0.2298
vn -0.0180 -0.2595 -0.9656
vn -0.0208 -0.2596 -0.9655
vn -0.0192 -0.2595 -0.9656
vn -0.0221 -0.2596 -0.9655
vn 0.0001 0.9733 -0.2296
vn -0.0023 0.9716 -0.2365
vn -0.0006 0.9728 -0.2315
vn -0.0031 0.9711 -0.2387
vn 0.0021 0.2584 0.9660
vn 0.0014 0.2584 0.9660
vn 0.0002 0.2583 0.9661
vn -0.0005 0.2583 0.9661
vn -0.0116 -0.9699 0.2432
vn 0.0027 -0.9689 0.2475
vn 0.9977 0.0645 -0.0197
vn 0.9975 0.0602 -0.0381
vn -0.0028 0.9692 -0.2461
vn 0.0006 0.9695 -0.2451
vn 0.0077 0.9700 -0.2428
vn 0.0106 0.9703 -0.2419
vn -0.9976 -0.0626 0.0292
vn -0.9977 -0.0682 0.0059
usemtl dec
s 1
f 1/1/1 2/2/2 3/3/3
f 3/3/3 2/2/2 4/4/4
f 5/5/5 6/6/5 7/7/5
f 7/7/6 6/6/6 8/8/6
f 1/9/7 9/10/7 2/11/7
f 2/11/8 9/10/8 10/12/8
f 11/13/9 9/14/9 3/15/9
f 3/15/10 9/14/10 1/16/10
f 12/17/11 11/18/12 4/19/13
f 4/19/13 11/18/12 3/20/14
f 7/21/15 11/22/15 5/23/15
f 5/23/16 11/22/16 12/17/16
f 8/24/17 9/25/17 7/26/17
f 7/26/18 9/25/18 11/27/18
f 10/28/19 9/29/19 6/30/19
f 6/30/20 9/29/20 8/31/20
f 13/32/21 14/33/22 15/34/23
f 15/34/23 14/33/22 16/35/24
f 17/36/25 18/37/25 19/38/25
f 19/38/26 18/37/26 20/39/26
f 15/40/27 16/41/27 21/42/27
f 21/42/28 16/41/28 22/43/28
f 13/44/29 15/45/29 23/46/29
f 23/46/30 15/45/30 21/47/30
f 13/48/31 23/49/31 14/50/31
f 14/50/32 23/49/32 24/51/32
f 14/52/33 24/53/33 16/54/33
f 16/54/34 24/53/34 22/55/34
f 18/56/35 21/57/36 20/58/37
f 20/58/37 21/57/36 22/59/38
f 24/60/39 19/61/40 22/62/41
f 22/62/41 19/61/40 20/63/42
f 17/64/43 19/65/44 23/66/45
f 23/66/45 19/65/44 24/67/46
f 21/68/47 18/69/48 23/70/49
f 23/70/49 18/69/48 17/71/50
f 25/72/51 26/73/52 27/74/51
f 27/74/51 26/73/52 28/75/52
f 27/76/53 28/77/53 29/78/53
f 29/78/54 28/77/54 30/79/54
f 31/80/55 29/81/55 32/82/55
f 32/82/56 29/81/56 30/83/56
f 33/84/57 34/85/57 35/86/57
f 35/86/58 34/85/58 36/87/58
f 37/88/59 38/89/59 34/90/60
f 34/90/60 38/89/59 36/91/60
f 39/92/61 37/93/62 33/94/63
f 33/94/63 37/93/62 34/95/64
f 36/96/65 38/97/65 35/98/65
f 35/98/66 38/97/66 40/99/66
f 39/100/67 40/101/67 37/102/67
f 37/102/68 40/101/68 38/103/68
f 41/104/69 42/105/70 43/106/69
f 43/106/69 42/105/70 44/107/70
f 45/108/71 46/109/71 47/110/71
f 47/110/72 46/109/72 48/111/72
f 44/112/73 42/113/73 49/114/73
f 49/114/74 42/113/75 50/115/74
f 51/116/76 43/117/76 49/118/77
f 49/118/77 43/117/76 44/119/77
f 43/120/78 51/121/78 41/122/78
f 41/122/79 51/121/79 52/123/79
f 41/124/80 52/125/80 42/126/81
f 42/126/81 52/125/80 50/127/81
f 46/128/82 49/114/82 48/129/82
f 48/129/83 49/114/74 50/115/74
f 47/130/84 48/131/85 52/132/84
f 52/132/84 48/131/85 50/133/86
f 45/134/87 47/135/88 51/121/89
f 51/121/89 47/135/88 52/123/90
f 45/136/91 51/137/91 46/138/91
f 46/138/91 51/137/91 49/139/91
f 53/140/92 54/141/92 55/142/93
f 55/142/93 54/141/92 56/143/93
f 57/144/94 58/145/95 59/146/96
f 59/146/96 58/145/95 60/147/97
f 59/148/98 60/147/98 53/149/98
f 53/149/99 60/147/99 54/141/99
f 55/150/100 56/143/100 57/151/100
f 57/151/101 56/143/101 58/145/101
f 54/141/102 60/147/102 56/143/102
f 56/143/103 60/147/103 58/145/103
f 53/152/104 55/153/104 59/154/104
f 59/154/105 55/153/105 57/155/105
f 61/156/106 62/157/106 63/158/106
f 63/158/107 62/157/107 64/159/107
f 65/160/108 66/161/109 67/162/108
f 67/162/108 66/161/109 68/163/109
f 61/164/110 63/165/110 69/166/110
f 69/166/111 63/165/111 70/167/111
f 62/168/112 61/169/113 71/170/112
f 71/170/112 61/169/113 69/171/113
f 62/172/114 71/173/114 64/174/114
f 64/174/115 71/173/115 72/175/115
f 64/176/116 72/177/117 63/178/118
f 63/178/118 72/177/117 70/179/119
f 66/180/120 69/181/120 68/182/120
f 68/182/121 69/181/121 70/183/121
f 67/184/122 68/185/123 72/186/122
f 72/186/122 68/185/123 70/187/124
f 65/188/125 67/189/125 71/190/125
f 71/190/126 67/189/126 72/191/126
f 65/192/127 71/193/127 66/194/128
f 66/194/128 71/193/127 69/195/128
f 73/196/129 74/197/129 75/198/129
f 75/198/130 74/197/130 76/199/130
f 73/200/131 77/201/132 74/202/131
f 74/202/131 77/201/132 78/203/132
f 77/204/133 73/205/133 79/206/133
f 79/206/134 73/205/134 75/207/134
f 78/208/135 80/209/135 74/210/135
f 74/210/136 80/209/136 76/211/136
f 80/212/137 78/213/137 79/214/137
f 79/214/138 78/213/138 77/215/138
f 81/216/139 82/217/139 83/218/139
f 83/218/140 82/217/140 84/219/140
f 85/220/141 84/221/142 86/222/143
f 86/222/143 84/221/142 82/223/144
f 86/224/145 87/225/146 85/226/147
f 85/226/147 87/225/146 88/227/148
f 84/228/149 85/229/149 83/230/149
f 83/230/150 85/229/150 88/231/150
f 86/232/151 82/233/151 87/234/151
f 87/234/152 82/233/152 81/235/152
f 81/236/153 83/237/153 87/238/153
f 87/238/153 83/237/153 88/239/153
f 89/240/154 90/241/155 91/242/156
f 91/242/156 90/241/155 92/243/156
f 93/244/157 94/245/157 95/246/158
f 95/246/158 94/245/157 96/247/158
f 92/248/159 97/249/160 91/250/161
f 91/250/161 97/249/160 98/251/162
f 90/252/163 99/253/164 92/254/165
f 92/254/165 99/253/164 97/255/166
f 100/256/167 99/257/168 89/258/169
f 89/258/169 99/257/168 90/259/170
f 98/260/171 100/261/172 91/262/173
f 91/262/173 100/261/172 89/263/174
f 98/264/175 97/265/175 93/266/175
f 93/266/176 97/265/176 94/267/176
f 95/268/177 100/269/177 93/270/177
f 93/270/178 100/269/178 98/271/178
f 96/272/179 99/273/180 95/274/181
f 95/274/181 99/273/180 100/275/182
f 97/255/183 99/276/183 94/277/183
f 94/277/184 99/276/184 96/278/184
